<?xml version="1.0" encoding="UTF-8" standalone="no"?>
<!-- Created with Inkscape (http://www.inkscape.org/) -->

<svg
   width="11.925499mm"
   height="15.345825mm"
   viewBox="0 0 11.925499 15.345825"
   version="1.1"
   id="svg5"
   xml:space="preserve"
   xmlns:inkscape="http://www.inkscape.org/namespaces/inkscape"
   xmlns:sodipodi="http://sodipodi.sourceforge.net/DTD/sodipodi-0.dtd"
   xmlns="http://www.w3.org/2000/svg"
   xmlns:svg="http://www.w3.org/2000/svg"><sodipodi:namedview
     id="namedview7"
     pagecolor="#ffffff"
     bordercolor="#000000"
     borderopacity="0.25"
     inkscape:showpageshadow="2"
     inkscape:pageopacity="0.0"
     inkscape:pagecheckerboard="0"
     inkscape:deskcolor="#d1d1d1"
     inkscape:document-units="mm"
     showgrid="false" /><defs
     id="defs2" /><g
     inkscape:label="Camada 1"
     inkscape:groupmode="layer"
     id="layer1"
     transform="translate(-83.266634,-83.818525)"><path
       style="fill:#0f164d;fill-opacity:1;stroke-width:0.0760377"
       d="M 83.383944,99.056539 C 83.24091,98.913503 83.22587,98.633922 83.3543,98.505492 c 0.06579,-0.06579 0.590892,-0.09132 1.881934,-0.09153 1.779163,-2.88e-4 1.789221,-0.0011 1.562576,-0.142291 -0.249812,-0.155517 -0.739211,-0.612801 -1.006578,-0.940525 -1.048632,-1.285358 -1.234546,-3.305511 -0.435651,-4.733786 0.480672,-0.859353 1.003002,-1.397884 1.860436,-1.918141 L 87.48315,90.51774 87.46023,89.409481 87.43731,88.301226 h -0.208999 c -0.262952,0 -0.391489,-0.125813 -0.391489,-0.383191 0,-0.19945 0.234582,-0.377187 0.497823,-0.377187 0.08338,0 0.110479,-0.103806 0.110479,-0.423206 0,-0.75015 -0.08111,-0.71736 1.774354,-0.71736 1.156229,0 1.642928,0.026 1.708176,0.09125 0.05166,0.05166 0.09125,0.299082 0.09125,0.570283 0,0.451839 0.01012,0.479038 0.178309,0.479038 0.333688,0 0.560281,0.447597 0.338746,0.669132 -0.05018,0.05018 -0.187052,0.09125 -0.30415,0.09125 h -0.212905 v 1.138612 1.138615 l 0.247121,0.127729 c 0.720295,0.372298 1.347445,0.985084 1.779861,1.739101 0.726273,1.266416 0.727143,3.018392 0.002,4.290863 -0.322152,0.565411 -0.913965,1.212246 -1.412311,1.543615 -0.190894,0.12693 -0.132706,0.132376 1.624828,0.152073 l 1.822808,0.02043 0.07392,0.210301 c 0.05855,0.16658 0.04651,0.237712 -0.05793,0.342168 -0.122412,0.122433 -0.542037,0.133333 -5.863173,0.152283 -5.154527,0.01836 -5.743491,0.0082 -5.852215,-0.100479 z m 4.859585,-1.707863 c 0,-0.138276 -0.04605,-0.195589 -0.171427,-0.213396 -0.206865,-0.02937 -0.305268,0.166403 -0.167235,0.332725 0.142465,0.171659 0.338662,0.102528 0.338662,-0.119329 z m 1.465816,-0.269402 c 0.215066,-0.150636 0.223567,-0.511399 0.01693,-0.718047 -0.359544,-0.359544 -0.943109,0.01362 -0.762825,0.487807 0.126766,0.333424 0.454266,0.434512 0.745906,0.23024 z M 87.505084,96.8068 c 0.01302,-0.06763 -0.02271,-0.169886 -0.07942,-0.22724 -0.0567,-0.05735 -0.127142,-0.155602 -0.156528,-0.218333 -0.02939,-0.06273 -0.122747,-0.228619 -0.207472,-0.36864 -0.171666,-0.283702 -0.374062,-1.057799 -0.375788,-1.437255 l -0.0011,-0.247124 0.475236,-0.0011 c 0.524284,-0.0011 1.307514,-0.159456 1.749593,-0.353425 0.231125,-0.10141 0.323321,-0.108362 0.481465,-0.03631 0.488813,0.222719 1.564901,0.390858 2.501486,0.390858 h 0.951279 v -0.302613 c 0,-0.9599 -1.09824,-2.369297 -2.204446,-2.829015 L 90.25853,91.018284 V 89.659741 88.3012 H 89.232021 88.20551 v 1.351758 1.351762 l -0.497832,0.216879 c -0.486522,0.21195 -1.302748,0.886194 -1.503589,1.24204 -0.355375,0.629644 -0.659899,1.453128 -0.659899,1.784482 0,0.03303 0.171085,0.06006 0.380189,0.06006 h 0.380189 v 0.376479 c 0,0.69487 0.358077,1.666519 0.779447,2.115046 0.181829,0.19355 0.384504,0.196952 0.421072,0.0071 z m -1.313201,-3.102562 c -0.09171,-0.288958 0.02416,-0.471777 0.282597,-0.44588 0.285742,0.02862 0.436664,0.230263 0.316273,0.422539 -0.04582,0.07319 -0.188148,0.14357 -0.316273,0.156407 -0.180043,0.01805 -0.24423,-0.01219 -0.282597,-0.133066 z m 4.420601,0.0087 c -0.169208,-0.186971 -0.158675,-0.436417 0.02624,-0.621325 0.297126,-0.297129 0.760377,-0.103778 0.760377,0.317361 0,0.389412 -0.525507,0.59248 -0.78661,0.303964 z M 87.749282,93.2107 c 0,-0.167118 0.03352,-0.195144 0.233401,-0.195144 0.198554,0 0.229773,0.02555 0.209104,0.171084 -0.01739,0.122496 -0.08368,0.177919 -0.233401,0.195145 -0.180046,0.02072 -0.209104,-0.003 -0.209104,-0.171085 z M 86.58337,92.964864 c -0.152891,-0.15289 0.184756,-0.633846 0.745635,-1.06211 0.378475,-0.288984 0.597203,-0.308162 0.633419,-0.05553 0.01706,0.118969 -0.06225,0.214732 -0.30501,0.368315 -0.180432,0.11415 -0.428332,0.340852 -0.550889,0.503783 -0.207066,0.275279 -0.401952,0.366749 -0.523155,0.245546 z m 2.819733,-0.131195 c -0.20299,-0.154091 -0.172981,-0.548831 0.05298,-0.696887 0.437161,-0.286438 0.913418,0.381753 0.485652,0.681374 -0.208675,0.146159 -0.360754,0.150542 -0.538629,0.01552 z m 1.750958,3.333141 c 0.316646,-0.221788 0.14851,-0.870121 -0.225653,-0.870121 -0.248061,0 -0.517805,0.229766 -0.517805,0.441061 0,0.221682 0.269296,0.547429 0.452562,0.547429 0.06705,0 0.19795,-0.05327 0.290896,-0.118369 z M 88.48575,95.891735 c 0.382517,-0.359357 0.132315,-0.929613 -0.407877,-0.929613 -0.509184,0 -0.731851,0.54652 -0.370066,0.908306 0.232064,0.232065 0.544493,0.24062 0.777943,0.02129 z m 1.426611,-0.421956 c 0.03161,-0.08238 5.74e-4,-0.167489 -0.08384,-0.229139 -0.184479,-0.134894 -0.287941,-0.08357 -0.316416,0.156959 -0.02032,0.171725 0.0049,0.20324 0.162952,0.20324 0.10687,0 0.208559,-0.05616 0.237301,-0.13106 z m 0.346166,-8.119037 v -0.190094 h -1.026509 -1.026511 v 0.190094 0.190095 h 1.026511 1.026509 z m -1.415731,-1.599907 c -0.243511,-0.371645 0.08662,-0.693103 0.535077,-0.521014 0.179404,0.06884 0.159715,0.53569 -0.02681,0.63551 -0.232967,0.12468 -0.3721,0.09334 -0.508278,-0.114496 z m 1.313461,0.05416 c -0.293126,-0.323897 -0.0583,-0.773399 0.404026,-0.773399 0.411831,0 0.589335,0.387847 0.340254,0.743459 -0.149225,0.213047 -0.563491,0.229712 -0.74428,0.02994 z M 87.654235,85.55777 c -0.173432,-0.101015 -0.170269,-0.392899 0.006,-0.552408 0.174634,-0.158042 0.347953,-0.160236 0.501836,-0.0064 0.334694,0.334691 -0.09008,0.802073 -0.507824,0.558761 z m 1.330286,-1.070218 c -0.120507,-0.120506 -0.122522,-0.462221 -0.0034,-0.581315 0.13888,-0.138879 0.401247,-0.10915 0.55716,0.06313 0.206682,0.22838 0.07642,0.559953 -0.231944,0.590418 -0.124913,0.01234 -0.269719,-0.02017 -0.321787,-0.07224 z"
       id="path302" /></g></svg>
